Coordinates
version=1
nRows=29
nColumns=24
inDegrees=yes

Units are S.I. units (second, meters, Newtons, ...)
Angles are in degrees.

endheader
time	pelvis_tilt	pelvis_list	pelvis_rotation	pelvis_tx	pelvis_ty	pelvis_tz	hip_flexion_r	hip_adduction_r	hip_rotation_r	knee_angle_r	ankle_angle_r	subtalar_angle_r	mtp_angle_r	hip_flexion_l	hip_adduction_l	hip_rotation_l	knee_angle_l	ankle_angle_l	subtalar_angle_l	mtp_angle_l	lumbar_extension	lumbar_bending	lumbar_rotation
      4.80000000	    -12.19957454	      6.08171524	      4.94760700	     -1.70092689	     -0.03000677	      2.05546265	     17.89553770	    -12.02174449	    -12.76054460	    -60.46948715	    -13.87531986	     -4.20605351	    -21.07745573	     28.28276033	     11.84418016	     -4.75187462	    -20.82441360	     -3.21306128	     -6.04660725	     19.99881684	      8.97634783	     -8.51836591	     -3.28662293
      4.81000000	    -12.11599222	      6.11876839	      4.86149741	     -1.68914128	     -0.02809723	      2.05467456	     19.65437907	    -11.86396506	    -11.76715692	    -61.74938125	    -12.42969098	     -5.33345448	    -21.14564300	     27.05776750	     11.84167351	     -4.85476435	    -20.27075979	     -2.56998922	     -5.66491073	     20.03688468	      8.79874383	     -8.51998394	     -3.44703920
      4.82000000	    -12.09051804	      6.08946663	      4.82249882	     -1.67743034	     -0.02628429	      2.05381833	     21.44539594	    -11.60970915	    -10.80326212	    -62.78257727	    -10.53954934	     -5.86250000	    -23.91212323	     25.86495683	     11.84106021	     -4.72935597	    -19.67853864	     -1.85272373	     -5.39678975	     19.09369319	      8.69203008	     -8.45854239	     -3.67773994
      4.83000000	    -11.99997228	      6.02792276	      4.76344717	     -1.66583208	     -0.02445934	      2.05297241	     23.10483059	    -11.29787638	     -9.93060151	    -63.46282568	     -9.15332264	     -6.25787515	    -23.95378386	     24.56812378	     11.80823245	     -4.59813907	    -18.96772778	     -1.38586065	     -5.32703815	     19.00641611	      8.51249540	     -8.35154326	     -3.90547828
      4.84000000	    -11.93961567	      5.88689663	      4.79196160	     -1.65433578	     -0.02277466	      2.05200676	     24.71390370	    -10.91243253	     -9.16642210	    -63.86482134	     -7.46359624	     -6.16688668	    -25.46065683	     23.32683044	     11.74562426	     -4.29783230	    -18.32498783	     -0.72253155	     -5.16295618	     17.93374221	      8.36026992	     -8.17696098	     -4.19226013
      4.85000000	    -11.85529712	      5.63922182	      4.87678639	     -1.64296592	     -0.02109575	      2.05097425	     26.18968531	    -10.43327058	     -8.58478021	    -63.89392682	     -6.12697298	     -6.00735356	    -25.24335571	     22.06619170	     11.58393541	     -3.95028059	    -17.63147004	     -0.33733383	     -5.12286563	     17.94927285	      8.17246173	     -7.89812452	     -4.53958817
      4.86000000	    -11.73362170	      5.42943325	      4.97583429	     -1.63161810	     -0.01952516	      2.04991594	     27.54770811	    -10.00780032	     -8.05661256	    -63.65868875	     -4.73296830	     -5.62085998	    -25.09323637	     20.75394444	     11.45648646	     -3.63488963	    -16.90851098	      0.05135815	     -5.07377781	     17.87440758	      7.94668627	     -7.65741515	     -4.91997202
      4.87000000	    -11.50629200	      5.09040682	      5.14569308	     -1.62030882	     -0.01785667	      2.04877623	     28.64470072	     -9.48176230	     -7.73384115	    -63.05014896	     -3.35721803	     -5.17955738	    -25.24263399	     19.34019355	     11.20825084	     -3.17567666	    -16.20463159	      0.46028244	     -5.03252236	     17.56705457	      7.60864032	     -7.28346453	     -5.32032015
      4.88000000	    -11.43309284	      4.73248897	      5.37628922	     -1.60912659	     -0.01652047	      2.04762143	     29.83814181	     -8.99516029	     -7.51296016	    -62.20195463	     -2.05561692	     -4.69230049	    -25.18405115	     18.14653874	     10.93727308	     -2.80628826	    -15.56333920	      0.84276957	     -4.88097458	     17.48731722	      7.42500478	     -6.91848037	     -5.79068702
      4.89000000	    -11.25109673	      4.31700779	      5.65048984	     -1.59795013	     -0.01515937	      2.04637781	     30.78515252	     -8.50901550	     -7.47761024	    -61.03132956	     -0.90594923	     -4.26978136	    -25.28868559	     16.83190310	     10.60804055	     -2.35497303	    -14.90528002	      1.23655129	     -4.80303412	     17.36270398	      7.13249666	     -6.48063106	     -6.28640330
      4.90000000	    -11.06264810	      3.87086410	      5.94738668	     -1.58685979	     -0.01390457	      2.04517612	     31.62316524	     -8.01682364	     -7.53603783	    -59.57680512	      0.08155958	     -3.94064746	    -25.59640768	     15.53707884	     10.23131201	     -1.86362061	    -14.27079615	      1.60429652	     -4.73275946	     17.18293731	      6.82939772	     -6.01719396	     -6.76527840
      4.91000000	    -10.89784973	      3.41545303	      6.24995539	     -1.57583096	     -0.01282686	      2.04401190	     32.39138866	     -7.54073259	     -7.66379649	    -57.86819195	      0.91451789	     -3.69330210	    -26.12775513	     14.28810385	      9.82949906	     -1.35725404	    -13.65028551	      1.96797300	     -4.68412812	     16.93547015	      6.55340456	     -5.54600822	     -7.22047250
      4.92000000	    -10.80950759	      3.04759078	      6.46410407	     -1.56483639	     -0.01210392	      2.04298023	     33.19840370	     -7.10923731	     -7.60129829	    -56.05533456	      2.52145702	     -3.06904498	    -31.45779949	     13.14527911	      9.49829526	     -0.93051152	    -13.10675596	      2.63752553	     -4.53790137	     15.15260761	      6.36230863	     -5.15596340	     -7.54479277
      4.93000000	    -10.69237635	      2.64948806	      6.72193426	     -1.55386591	     -0.01147160	      2.04196591	     33.82826597	     -6.70546094	     -7.75659792	    -53.90540621	      3.11933154	     -2.88419280	    -31.81448532	     11.96075727	      9.11348648	     -0.53039275	    -12.46229785	      2.93690345	     -4.53292352	     15.23542610	      6.14411185	     -4.74038636	     -7.93162343
      4.94000000	    -10.66190290	      2.29153687	      6.91537897	     -1.54287651	     -0.01115054	      2.04107882	     34.47760407	     -6.31547353	     -7.81648509	    -51.60130737	      4.18754080	     -2.53215144	    -35.48058254	     10.88826553	      8.75174266	     -0.25317338	    -11.85436443	      3.33857092	     -4.46905187	     14.83218769	      6.03160938	     -4.36556407	     -8.21504617
      4.95000000	    -10.69512203	      1.94388508	      7.08807134	     -1.53188570	     -0.01107619	      2.04032015	     35.10274226	     -5.95283689	     -7.97155822	    -49.07168732	      4.55810549	     -2.39811357	    -35.66521884	      9.90031757	      8.37967223	     -0.06648034	    -11.25351641	      3.70289298	     -4.35051060	     14.83748021	      5.99128137	     -4.01674481	     -8.47658334
      4.96000000	    -10.52786119	      1.69906388	      7.17179198	     -1.52079371	     -0.01100732	      2.03964409	     35.41384582	     -5.65701915	     -8.07492492	    -46.40268352	      5.16975409	     -1.89399231	    -36.57819309	      8.66051466	      8.06331740	     -0.05456151	    -10.61887793	      4.12017156	     -4.10925335	     14.69704070	      5.74444272	     -3.72065849	     -8.63940518
      4.97000000	    -10.63721296	      1.40280379	      7.28645681	     -1.50972436	     -0.01140736	      2.03904907	     35.95341921	     -5.36153406	     -8.28786002	    -43.57271153	      5.53360112	     -1.46227260	    -37.10954061	      7.79076554	      7.72131560	     -0.05174981	    -10.09513040	      4.54777117	     -3.89909838	     14.65100589	      5.80385884	     -3.42283429	     -8.85226517
      4.98000000	    -10.57507309	      1.21283939	      7.29796275	     -1.49855360	     -0.01184344	      2.03858105	     36.22996496	     -5.13288987	     -8.47264099	    -40.66178102	      6.11513623	     -0.51111183	    -37.81258869	      6.69706698	      7.44645224	     -0.23039618	     -9.53097787	      5.01418681	     -3.57613937	     14.55576563	      5.67776846	     -3.19522906	     -8.92085232
      4.99000000	    -10.61008086	      1.07329412	      7.18775996	     -1.48738782	     -0.01255756	      2.03822598	     36.57272923	     -4.89851494	     -8.51348120	    -37.69353580	      7.12707035	      0.86468623	    -41.37987587	      5.71745014	      7.24283600	     -0.44237785	     -8.99680698	      5.48054779	     -3.42198746	     13.87413920	      5.65942038	     -2.99481211	     -8.83320629
      5.00000000	    -10.75452823	      0.80541628	      7.18843942	     -1.47626734	     -0.01342772	      2.03786551	     36.91441352	     -4.62406602	     -8.84806667	    -34.55304035	      7.57599211	      2.30886904	    -41.42415911	      4.96136901	      6.90606967	     -0.76568969	     -8.60952310	      5.98702438	     -3.01265525	     13.98278116	      5.75811224	     -2.70197778	     -8.90916306
      5.01000000	    -10.75988607	      0.52732213	      7.03881001	     -1.46511887	     -0.01420053	      2.03771355	     37.02080935	     -4.21988909	     -9.10804961	    -31.30291151	      8.08773247	      4.01296646	    -41.52896424	      4.06319737	      6.52448346	     -1.31516862	     -8.22793445	      6.48580389	     -2.56644425	     14.07403192	      5.70620477	     -2.35272215	     -8.80504215
      5.02000000	    -10.79405960	      0.20630018	      6.84417014	     -1.45399107	     -0.01502720	      2.03766532	     37.06866172	     -3.73533932	     -9.38619256	    -27.97734798	      8.62282059	      5.84889191	    -41.61105418	      3.25432383	      6.09702836	     -1.97843603	     -7.94472020	      6.99482276	     -2.05952629	     14.18242670	      5.68185875	     -1.95023696	     -8.64490299
      5.03000000	    -10.83886942	     -0.10293488	      6.60136274	     -1.44283642	     -0.01595166	      2.03775442	     37.04245130	     -3.21071079	     -9.63055549	    -24.61427812	      9.13938989	      7.68398632	    -41.62504008	      2.50249251	      5.67813421	     -2.75183800	     -7.76207787	      7.50271835	     -1.50354886	     14.30273639	      5.66310821	     -1.55513153	     -8.42589854
      5.04000000	    -10.86958413	     -0.36728935	      6.37702029	     -1.43144197	     -0.01702137	      2.03796023	     36.86657245	     -2.70367222	     -9.86718372	    -21.18062355	      9.60084853	      9.37880335	    -41.51550620	      1.75164563	      5.29694177	     -3.52237511	     -7.66468426	      8.00617958	     -0.89425075	     14.42878724	      5.65260526	     -1.21989420	     -8.18829028
      5.05000000	    -10.67657430	     -0.63333282	      6.20680954	     -1.41965693	     -0.01802647	      2.03828270	     36.23046947	     -2.13146519	    -10.03224346	    -17.52738172	      9.73100488	     10.59846160	    -41.22054812	      0.76856756	      4.86991807	     -4.23615471	     -7.65236685	      8.52864212	     -0.22941011	     14.53996451	      5.44497572	     -0.87970390	     -8.04307727
      5.06000000	    -10.48389463	     -0.80340680	      6.16084193	     -1.40753815	     -0.01927057	      2.03859551	     35.47402737	     -1.72205654	    -10.36611932	    -13.92703820	      9.77762915	     11.72252563	    -40.79915142	     -0.17572608	      4.52973013	     -4.83788304	     -7.78385756	      9.04513293	      0.51331532	     14.65749639	      5.27029511	     -0.67194737	     -8.02764426
      5.07000000	    -10.10608051	     -1.02487133	      6.09446811	     -1.39505948	     -0.02035234	      2.03911376	     34.45725686	     -1.19193627	    -10.72918494	    -10.48825243	      9.65824174	     12.39885646	    -40.03350825	     -1.31251805	      4.08237072	     -5.33148476	     -7.96904491	      9.49558391	      1.22750318	     14.67598179	      4.94941970	     -0.40663712	     -7.92256910
      5.08000000	     -9.78381142	     -1.33336821	      6.11882568	     -1.38264299	     -0.02140783	      2.03969608	     33.59321416	     -0.63962728	    -11.40404181	     -7.53279529	      9.37462141	     12.81384008	    -38.62812133	     -2.24026755	      3.51111358	     -5.65184785	     -8.41955936	      9.99038853	      1.98704738	     14.47138254	      4.68003005	     -0.07985258	     -7.94540137
